<?xml version="1.0" encoding="UTF-8"?>
<svg id="Layer_1" data-name="Layer 1" xmlns="http://www.w3.org/2000/svg" viewBox="0 0 155.76 155.76">
  <defs>
    <style>
      .cls-1 {
        fill: #3b5b72;
      }

      .cls-2 {
        fill: #5dcdde;
      }
    </style>
  </defs>
  <path class="cls-1" d="m130.07,56.95c0-9.61-7.82-17.43-17.43-17.43-10.29,0-18.65,8.37-18.65,18.65v16.2h18.65c9.61,0,17.43-7.82,17.43-17.43Z"/>
  <path class="cls-2" d="m77.88,81.38h-35.26c-4.8,0-9.28,1.91-12.29,5.23-1.65,1.82-2.94,3.83-3.83,5.95-2.43,5.83-1.68,12.32,1.99,17.36,3.6,4.94,9.4,7.59,15.55,7.07l.45-.04c2.87-.29,5.5-1.34,7.61-3.05l.3-.24c4.39-3.67,6.91-9.22,6.91-15.23v-1.99h-13.66v-7.01h20.67v8.99c0,8.09-3.44,15.61-9.44,20.62l-.39.32c-3.16,2.55-7.07,4.13-11.3,4.56l-.56.05c-.7.06-1.4.09-2.1.09-7.82,0-15.06-3.65-19.7-10.02-5.12-7.03-6.17-16.07-2.79-24.18,1.2-2.87,2.91-5.55,5.1-7.97,4.34-4.79,10.71-7.53,17.48-7.53h16.69V2.24C25.27,10.57,0,41.27,0,77.88c0,43.01,34.87,77.88,77.88,77.88,3.08,0,6.12-.2,9.11-.55v-73.83h-9.11Z"/>
  <path class="cls-1" d="m155.76,77.88C155.76,34.87,120.89,0,77.88,0c-3.93,0-7.79.3-11.56.86v73.52h20.67v-16.2c0-14.15,11.51-25.66,25.66-25.66s24.43,10.96,24.43,24.43-10.96,24.43-24.43,24.43h-18.65v72.7c35.28-7.42,61.77-38.71,61.77-76.2Z"/>
</svg>